<svg width="153" height="14" viewBox="0 0 153 14" fill="none" xmlns="http://www.w3.org/2000/svg">
<path d="M9.264 3.552C9.392 3.552 9.52533 3.56267 9.664 3.584C9.80267 3.60533 9.93067 3.64267 10.048 3.696C10.1653 3.74933 10.2613 3.824 10.336 3.92C10.4213 4.016 10.464 4.144 10.464 4.304C10.464 4.45333 10.4213 4.576 10.336 4.672C10.2507 4.768 10.144 4.84267 10.016 4.896C9.89867 4.94933 9.76533 4.98667 9.616 5.008C9.47733 5.02933 9.35467 5.04 9.248 5.04H3.328V3.552H9.264ZM9.248 5.92C9.504 5.92 9.75467 5.89333 10 5.84C10.256 5.776 10.4853 5.68 10.688 5.552C10.8907 5.424 11.0507 5.25867 11.168 5.056C11.296 4.84267 11.36 4.592 11.36 4.304C11.36 4.00533 11.3013 3.74933 11.184 3.536C11.0667 3.32267 10.9067 3.152 10.704 3.024C10.512 2.896 10.288 2.80533 10.032 2.752C9.78667 2.688 9.53067 2.656 9.264 2.656H2.448V5.92H9.248ZM10.704 6.64C10.5547 6.72533 10.3893 6.78933 10.208 6.832C10.0267 6.87467 9.856 6.91733 9.696 6.96C10.2933 7.664 10.8907 8.35733 11.488 9.04C12.096 9.72267 12.704 10.416 13.312 11.12H12.016L8.32 6.88H2.448V11.12H1.456V1.68H9.264C9.70133 1.68 10.1067 1.728 10.48 1.824C10.864 1.92 11.1893 2.07467 11.456 2.288C11.7333 2.50133 11.9467 2.77333 12.096 3.104C12.256 3.43467 12.336 3.83467 12.336 4.304C12.336 4.89067 12.2027 5.376 11.936 5.76C11.6693 6.13333 11.264 6.42667 10.72 6.64H10.704ZM13.232 4.304C13.232 3.696 13.136 3.17333 12.944 2.736C12.752 2.288 12.48 1.92 12.128 1.632C11.776 1.344 11.3547 1.13067 10.864 0.992C10.384 0.853333 9.85067 0.783999 9.264 0.783999H0.592V12.016H3.328V7.76H7.904L11.584 12.016H15.264L11.232 7.392C12.5653 6.80533 13.232 5.776 13.232 4.304ZM0.192 12.416V0.384H9.264C9.68 0.384 10.08 0.416 10.464 0.48C10.848 0.533333 11.232 0.650666 11.616 0.832C12.0107 1.01333 12.416 1.27467 12.832 1.616C13.2587 1.95733 13.712 2.41067 14.192 2.976C14.5013 3.28533 14.7413 3.70133 14.912 4.224C15.0933 4.736 15.184 5.296 15.184 5.904C15.184 6.608 15.0293 7.232 14.72 7.776C14.4213 8.32 13.984 8.76267 13.408 9.104C13.7387 9.488 14.0853 9.888 14.448 10.304C14.8107 10.72 15.1733 11.1413 15.536 11.568C15.8987 11.984 16.256 12.3947 16.608 12.8C16.9707 13.216 17.312 13.6053 17.632 13.968H13.024L11.408 12.416L9.072 9.712H5.28V13.968H1.84L0.192 12.416ZM28.9324 5.92V6.88H20.7884V10.144H30.5964V11.12H19.7964V1.68H30.5804V2.656H20.7884V5.92H28.9324ZM31.4764 3.552V0.783999H18.9004V12.016H31.4924V9.248H21.6684V7.76H29.8124V5.04H21.6684V3.552H31.4764ZM18.5004 12.416V0.384H31.8764L33.4284 2.032V5.504H30.9804L31.7644 6.288V8.848L33.4444 10.496V13.968H20.1484L18.5004 12.416ZM37.3178 3.2V11.12H36.3738V1.68H37.1898L45.7818 9.6V1.68H46.7418V11.12H45.9418L37.3178 3.2ZM47.6378 0.783999H44.9018V7.584L37.4938 0.783999H35.4778V12.016H38.2138V5.2L45.6378 12.016H47.6378V0.783999ZM35.0777 12.416V0.384H37.6378L44.5017 6.672V0.384H48.0378L49.5898 2.032V13.968H47.0938L40.1658 7.616V13.968H36.7258L35.0777 12.416ZM58.252 2.656H52.892V1.68H64.588V2.656H59.212V11.12H58.252V2.656ZM60.092 3.552H65.468V0.783999H52.012V3.552H57.372V12.016H60.092V3.552ZM51.612 3.952V0.384H65.868L67.42 2.032V5.504H62.044V13.968H58.62L56.972 12.416V5.504H53.26L51.612 3.952ZM78.1969 7.648L74.8209 2.864L71.3649 7.648H78.1969ZM76.4689 6.784H73.0769L74.7889 4.384L76.4689 6.784ZM80.5809 11.12L78.8529 8.64H70.6769C70.3782 9.04533 70.0849 9.46133 69.7969 9.888C69.5195 10.304 69.2315 10.7147 68.9329 11.12H67.6529C68.7835 9.53067 69.9089 7.95733 71.0289 6.4C72.1595 4.84267 73.2849 3.26933 74.4049 1.68H75.1729L81.7809 11.12H80.5809ZM73.9729 0.783999L65.9729 12.016H69.3649L71.1249 9.536H78.3569L80.1009 12.016H83.4929L75.6529 0.783999H73.9729ZM77.4449 2.032L85.7649 13.968H81.5089L79.8929 12.416L79.2369 11.488H72.9169C72.7889 11.68 72.6449 11.8827 72.4849 12.096C72.3355 12.3093 72.1809 12.5227 72.0209 12.736C71.8715 12.96 71.7222 13.1733 71.5729 13.376C71.4235 13.5893 71.2849 13.7867 71.1569 13.968H66.8849L65.1889 12.416L73.7649 0.384H75.8609L77.4449 2.032ZM88.4115 1.68V10.144H97.4515V11.12H87.4515V1.68H88.4115ZM98.3315 12.016V9.248H89.3075V0.783999H86.5715V12.016H98.3315ZM86.1715 0.384H89.7075L91.2595 2.032V8.848H98.7315L100.284 10.496V13.968H87.8195L86.1715 12.416V0.384ZM111.731 5.92C111.987 5.92 112.238 5.89333 112.483 5.84C112.729 5.776 112.947 5.68 113.139 5.552C113.342 5.424 113.502 5.25867 113.619 5.056C113.737 4.84267 113.795 4.592 113.795 4.304C113.795 4.00533 113.737 3.75467 113.619 3.552C113.513 3.33867 113.363 3.168 113.171 3.04C112.979 2.90133 112.761 2.80533 112.515 2.752C112.27 2.688 112.014 2.656 111.747 2.656H104.899V5.92H111.731ZM111.747 3.552C111.865 3.552 111.993 3.56267 112.131 3.584C112.27 3.60533 112.398 3.648 112.515 3.712C112.633 3.76533 112.729 3.84 112.803 3.936C112.878 4.032 112.915 4.15467 112.915 4.304C112.915 4.45333 112.873 4.576 112.787 4.672C112.713 4.75733 112.611 4.832 112.483 4.896C112.366 4.94933 112.238 4.98667 112.099 5.008C111.961 5.02933 111.838 5.04 111.731 5.04H105.795V3.552H111.747ZM112.595 10.144C112.851 10.144 113.107 10.1173 113.363 10.064C113.619 10 113.843 9.904 114.035 9.776C114.238 9.63733 114.398 9.46667 114.515 9.264C114.643 9.05067 114.707 8.79467 114.707 8.496C114.707 8.22933 114.654 7.99467 114.547 7.792C114.441 7.58933 114.297 7.424 114.115 7.296C113.934 7.15733 113.726 7.056 113.491 6.992C113.267 6.91733 113.033 6.88 112.787 6.88H104.899V10.144H112.595ZM112.787 7.76C112.894 7.76 113.006 7.776 113.123 7.808C113.251 7.82933 113.363 7.872 113.459 7.936C113.566 7.98933 113.651 8.064 113.715 8.16C113.779 8.256 113.811 8.368 113.811 8.496C113.811 8.656 113.769 8.784 113.683 8.88C113.609 8.976 113.507 9.05067 113.379 9.104C113.262 9.15733 113.129 9.19467 112.979 9.216C112.841 9.23733 112.713 9.248 112.595 9.248H105.795V7.76H112.787ZM111.747 1.68C112.185 1.68 112.59 1.728 112.963 1.824C113.337 1.92 113.657 2.07467 113.923 2.288C114.201 2.50133 114.414 2.77333 114.563 3.104C114.723 3.43467 114.809 3.83467 114.819 4.304C114.819 4.56 114.761 4.80533 114.643 5.04C114.537 5.264 114.403 5.46133 114.243 5.632C114.083 5.80267 113.913 5.94133 113.731 6.048C113.55 6.144 113.395 6.19733 113.267 6.208C113.555 6.22933 113.843 6.304 114.131 6.432C114.419 6.54933 114.675 6.70933 114.899 6.912C115.134 7.11467 115.326 7.34933 115.475 7.616C115.625 7.88267 115.699 8.176 115.699 8.496C115.699 8.976 115.619 9.38667 115.459 9.728C115.299 10.0587 115.075 10.3307 114.787 10.544C114.51 10.7467 114.179 10.896 113.795 10.992C113.422 11.0773 113.022 11.12 112.595 11.12H103.939V1.68H111.747ZM112.595 12.016C113.171 12.016 113.705 11.952 114.195 11.824C114.686 11.6853 115.107 11.4773 115.459 11.2C115.811 10.912 116.089 10.5493 116.291 10.112C116.494 9.664 116.595 9.12533 116.595 8.496C116.595 7.96267 116.446 7.488 116.147 7.072C115.859 6.656 115.422 6.32533 114.835 6.08C114.963 5.97333 115.081 5.85067 115.187 5.712C115.294 5.56267 115.385 5.408 115.459 5.248C115.534 5.088 115.593 4.928 115.635 4.768C115.678 4.59733 115.699 4.44267 115.699 4.304C115.699 3.696 115.603 3.17333 115.411 2.736C115.219 2.288 114.947 1.92 114.595 1.632C114.254 1.344 113.838 1.13067 113.347 0.992C112.867 0.853333 112.334 0.783999 111.747 0.783999H103.043V12.016H112.595ZM102.643 0.384H111.747C112.707 0.384 113.577 0.544 114.355 0.863999C115.134 1.184 115.859 1.744 116.531 2.544C116.755 2.81067 116.958 3.14133 117.139 3.536C117.321 3.92 117.449 4.32533 117.523 4.752C117.598 5.168 117.598 5.57867 117.523 5.984C117.459 6.38933 117.289 6.736 117.011 7.024C117.289 7.13067 117.523 7.312 117.715 7.568C117.907 7.81333 118.062 8.08533 118.179 8.384C118.307 8.68267 118.398 8.98667 118.451 9.296C118.515 9.60533 118.547 9.872 118.547 10.096C118.547 10.7893 118.435 11.3813 118.211 11.872C117.998 12.352 117.699 12.7467 117.315 13.056C116.931 13.376 116.473 13.6053 115.939 13.744C115.406 13.8933 114.825 13.968 114.195 13.968H104.291L102.643 12.416V0.384ZM131.744 7.648L128.368 2.864L124.912 7.648H131.744ZM130.016 6.784H126.624L128.336 4.384L130.016 6.784ZM134.128 11.12L132.4 8.64H124.224C123.925 9.04533 123.632 9.46133 123.344 9.888C123.066 10.304 122.778 10.7147 122.48 11.12H121.2C122.33 9.53067 123.456 7.95733 124.576 6.4C125.706 4.84267 126.832 3.26933 127.952 1.68H128.72L135.328 11.12H134.128ZM127.52 0.783999L119.52 12.016H122.912L124.672 9.536H131.904L133.648 12.016H137.04L129.2 0.783999H127.52ZM130.992 2.032L139.312 13.968H135.056L133.44 12.416L132.784 11.488H126.464C126.336 11.68 126.192 11.8827 126.032 12.096C125.882 12.3093 125.728 12.5227 125.568 12.736C125.418 12.96 125.269 13.1733 125.12 13.376C124.97 13.5893 124.832 13.7867 124.704 13.968H120.432L118.736 12.416L127.312 0.384H129.408L130.992 2.032ZM136.397 1.68H137.805L142.445 6.24L147.005 1.68H148.397L142.925 7.136V11.12H141.933V7.152L136.397 1.68ZM143.821 12.016V7.504L150.525 0.783999H146.653L142.429 5.04L138.141 0.783999H134.237L141.053 7.536V12.016H143.821ZM140.653 7.696C140.077 7.13067 139.475 6.53867 138.845 5.92C138.227 5.30133 137.597 4.67733 136.957 4.048C136.317 3.408 135.683 2.77867 135.053 2.16C134.424 1.54133 133.827 0.949333 133.261 0.384H138.301L142.413 4.48L146.477 0.384H151.501L152.989 2.032L145.773 9.248V13.968H142.301L140.653 12.416V7.696Z" fill="#F85E00"/>
</svg>
